<svg xmlns="http://www.w3.org/2000/svg" xmlns:xlink="http://www.w3.org/1999/xlink" contentStyleType="text/css" data-diagram-type="CLASS" height="933px" preserveAspectRatio="none" style="width:1302px;height:933px;background:#FFFFFF;" version="1.1" viewBox="0 0 1302 933" width="1302px" zoomAndPan="magnify"><title>DMSLMMain - Parent Class Architecture</title><defs/><g><g class="title" data-source-line="1"><text fill="#000000" font-family="sans-serif" font-size="14" font-weight="bold" lengthAdjust="spacing" textLength="288.2168" x="499.8916" y="23.5352">DMSLMMain - Parent Class Architecture</text></g><!--cluster parentClass--><g class="cluster" data-entity="parentClass" data-source-line="3" data-uid="ent0002" id="cluster_parentClass"><path d="M8.5,43.4883 L95.0313,43.4883 A3.75,3.75 0 0 1 97.5313,45.9883 L104.5313,65.9766 L606.5,65.9766 A2.5,2.5 0 0 1 609,68.4766 L609,924.0083 A2.5,2.5 0 0 1 606.5,926.5083 L8.5,926.5083 A2.5,2.5 0 0 1 6,924.0083 L6,45.9883 A2.5,2.5 0 0 1 8.5,43.4883" fill="none" style="stroke:#000000;stroke-width:1.5;"/><line style="stroke:#000000;stroke-width:1.5;" x1="6" x2="104.5313" y1="65.9766" y2="65.9766"/><text fill="#000000" font-family="sans-serif" font-size="14" font-weight="bold" lengthAdjust="spacing" textLength="85.5313" x="10" y="59.0234">parentClass</text></g><!--cluster config--><g class="cluster" data-entity="config" data-source-line="73" data-uid="ent0007" id="cluster_config"><path d="M767.5,753.3083 L813.6787,753.3083 A3.75,3.75 0 0 1 816.1787,755.8083 L823.1787,775.7966 L1076.5,775.7966 A2.5,2.5 0 0 1 1079,778.2966 L1079,866.2983 A2.5,2.5 0 0 1 1076.5,868.7983 L767.5,868.7983 A2.5,2.5 0 0 1 765,866.2983 L765,755.8083 A2.5,2.5 0 0 1 767.5,753.3083" fill="none" style="stroke:#000000;stroke-width:1.5;"/><line style="stroke:#000000;stroke-width:1.5;" x1="765" x2="823.1787" y1="775.7966" y2="775.7966"/><text fill="#000000" font-family="sans-serif" font-size="14" font-weight="bold" lengthAdjust="spacing" textLength="45.1787" x="769" y="768.8434">config</text></g><!--cluster External API--><g class="cluster" data-entity="External API" data-source-line="79" data-uid="ent0009" id="cluster_External API"><path d="M1105.5,753.3083 L1193.5488,753.3083 A3.75,3.75 0 0 1 1196.0488,755.8083 L1203.0488,775.7966 L1292.5,775.7966 A2.5,2.5 0 0 1 1295,778.2966 L1295,866.2983 A2.5,2.5 0 0 1 1292.5,868.7983 L1105.5,868.7983 A2.5,2.5 0 0 1 1103,866.2983 L1103,755.8083 A2.5,2.5 0 0 1 1105.5,753.3083" fill="none" style="stroke:#000000;stroke-width:1.5;"/><line style="stroke:#000000;stroke-width:1.5;" x1="1103" x2="1203.0488" y1="775.7966" y2="775.7966"/><text fill="#000000" font-family="sans-serif" font-size="14" font-weight="bold" lengthAdjust="spacing" textLength="87.0488" x="1107" y="768.8434">External API</text></g><!--cluster queue--><g class="cluster" data-entity="queue" data-source-line="89" data-uid="ent0016" id="cluster_queue"><path d="M635.5,761.5583 L680.5713,761.5583 A3.75,3.75 0 0 1 683.0713,764.0583 L690.0713,784.0466 L738.5,784.0466 A2.5,2.5 0 0 1 741,786.5466 L741,858.0583 A2.5,2.5 0 0 1 738.5,860.5583 L635.5,860.5583 A2.5,2.5 0 0 1 633,858.0583 L633,764.0583 A2.5,2.5 0 0 1 635.5,761.5583" fill="none" style="stroke:#000000;stroke-width:1.5;"/><line style="stroke:#000000;stroke-width:1.5;" x1="633" x2="690.0713" y1="784.0466" y2="784.0466"/><text fill="#000000" font-family="sans-serif" font-size="14" font-weight="bold" lengthAdjust="spacing" textLength="44.0713" x="637" y="777.0934">queue</text></g><!--class DebugQueue--><g class="entity" data-entity="DebugQueue" data-source-line="5" data-uid="ent0003" id="entity_DebugQueue"><rect fill="#F1F1F1" height="113.9531" rx="2.5" ry="2.5" style="stroke:#181818;stroke-width:0.5;" width="273.9189" x="22.04" y="317.5683"/><ellipse cx="110.5654" cy="333.5683" fill="#ADD1B2" rx="11" ry="11" style="stroke:#181818;stroke-width:1;"/><path d="M113.0385,339.7113 Q112.4575,340.0102 111.8183,340.1596 Q111.1792,340.309 110.4736,340.309 Q107.9668,340.309 106.6469,338.6571 Q105.3271,337.0053 105.3271,333.8842 Q105.3271,330.7548 106.6469,329.1029 Q107.9668,327.4511 110.4736,327.4511 Q111.1792,327.4511 111.8266,327.6005 Q112.4741,327.7499 113.0385,328.0487 L113.0385,330.7714 Q112.4077,330.1904 111.8142,329.9206 Q111.2207,329.6508 110.5898,329.6508 Q109.2451,329.6508 108.5603,330.7175 Q107.8754,331.7841 107.8754,333.8842 Q107.8754,335.976 108.5603,337.0426 Q109.2451,338.1093 110.5898,338.1093 Q111.2207,338.1093 111.8142,337.8395 Q112.4077,337.5697 113.0385,336.9887 Z " fill="#000000"/><text fill="#000000" font-family="sans-serif" font-size="14" lengthAdjust="spacing" textLength="88.3682" x="131.0654" y="338.8593">DebugQueue</text><line style="stroke:#181818;stroke-width:0.5;" x1="23.04" x2="294.9589" y1="349.5683" y2="349.5683"/><ellipse cx="33.04" cy="363.3124" fill="#84BE84" rx="3" ry="3" style="stroke:#038048;stroke-width:1;"/><text fill="#000000" font-family="sans-serif" font-size="14" lengthAdjust="spacing" textLength="219.5703" x="42.04" y="367.1034">put(item, *args, **kwargs) : void</text><ellipse cx="33.04" cy="379.8007" fill="#84BE84" rx="3" ry="3" style="stroke:#038048;stroke-width:1;"/><text fill="#000000" font-family="sans-serif" font-size="14" lengthAdjust="spacing" textLength="181.0361" x="42.04" y="383.5917">get(*args, **kwargs) : item</text><line style="stroke:#181818;stroke-width:1;" x1="23.04" x2="294.9589" y1="390.5448" y2="390.5448"/><rect fill="none" height="6" style="stroke:#C82930;stroke-width:1;" width="6" x="30.04" y="401.289"/><text fill="#000000" font-family="sans-serif" font-size="14" lengthAdjust="spacing" textLength="175.2119" x="42.04" y="408.08">Logs all queue operations</text><rect fill="none" height="6" style="stroke:#C82930;stroke-width:1;" width="6" x="30.04" y="417.7773"/><text fill="#000000" font-family="sans-serif" font-size="14" lengthAdjust="spacing" textLength="247.9189" x="42.04" y="424.5683">Prints [QUEUE PUT] and [QUEUE GET]</text></g><!--class DMSLMMain--><g class="entity" data-entity="DMSLMMain" data-source-line="13" data-uid="ent0004" id="entity_DMSLMMain"><rect fill="#F1F1F1" height="592.1133" rx="2.5" ry="2.5" style="stroke:#181818;stroke-width:0.5;" width="262.2773" x="330.86" y="78.4883"/><ellipse cx="416.6818" cy="94.4883" fill="#ADD1B2" rx="11" ry="11" style="stroke:#181818;stroke-width:1;"/><path d="M419.1549,100.6313 Q418.5739,100.9302 417.9347,101.0796 Q417.2955,101.229 416.59,101.229 Q414.0831,101.229 412.7633,99.5771 Q411.4435,97.9253 411.4435,94.8042 Q411.4435,91.6748 412.7633,90.0229 Q414.0831,88.3711 416.59,88.3711 Q417.2955,88.3711 417.943,88.5205 Q418.5905,88.6699 419.1549,88.9688 L419.1549,91.6914 Q418.5241,91.1104 417.9306,90.8406 Q417.3371,90.5708 416.7062,90.5708 Q415.3615,90.5708 414.6767,91.6375 Q413.9918,92.7041 413.9918,94.8042 Q413.9918,96.896 414.6767,97.9626 Q415.3615,99.0293 416.7062,99.0293 Q417.3371,99.0293 417.9306,98.7595 Q418.5241,98.4897 419.1549,97.9087 Z " fill="#000000"/><text fill="#000000" font-family="sans-serif" font-size="14" lengthAdjust="spacing" textLength="82.1338" x="437.1818" y="99.7793">DMSLMMain</text><line style="stroke:#181818;stroke-width:0.5;" x1="331.86" x2="592.1373" y1="110.4883" y2="110.4883"/><rect fill="none" height="6" style="stroke:#C82930;stroke-width:1;" width="6" x="338.86" y="121.2324"/><text fill="#000000" font-family="sans-serif" font-size="14" lengthAdjust="spacing" textLength="177.208" x="350.86" y="128.0234">FRAME_HEIGHT: int = 480</text><rect fill="none" height="6" style="stroke:#C82930;stroke-width:1;" width="6" x="338.86" y="137.7207"/><text fill="#000000" font-family="sans-serif" font-size="14" lengthAdjust="spacing" textLength="171.6777" x="350.86" y="144.5117">FRAME_WIDTH: int = 640</text><rect fill="none" height="6" style="stroke:#C82930;stroke-width:1;" width="6" x="338.86" y="154.209"/><text fill="#000000" font-family="sans-serif" font-size="14" lengthAdjust="spacing" textLength="181.248" x="350.86" y="161">FRAME_CHANNELS: int = 3</text><rect fill="none" height="6" style="stroke:#C82930;stroke-width:1;" width="6" x="338.86" y="170.6973"/><text fill="#000000" font-family="sans-serif" font-size="14" lengthAdjust="spacing" textLength="179.8467" x="350.86" y="177.4883">RING_BUFFER_SIZE: int = 3</text><rect fill="none" height="6" style="stroke:#C82930;stroke-width:1;" width="6" x="338.86" y="187.1855"/><text fill="#000000" font-family="sans-serif" font-size="14" lengthAdjust="spacing" textLength="182.0342" x="350.86" y="193.9766">shared_frames: np.ndarray</text><text fill="#000000" font-family="sans-serif" font-size="14" lengthAdjust="spacing" textLength="4.4297" x="350.86" y="210.4648">&#160;</text><rect fill="none" height="6" style="stroke:#C82930;stroke-width:1;" width="6" x="338.86" y="220.1621"/><text fill="#000000" font-family="sans-serif" font-size="14" lengthAdjust="spacing" textLength="143.6709" x="350.86" y="226.9531">session: bool = False</text><rect fill="none" height="6" style="stroke:#C82930;stroke-width:1;" width="6" x="338.86" y="236.6504"/><text fill="#000000" font-family="sans-serif" font-size="14" lengthAdjust="spacing" textLength="186.5117" x="350.86" y="243.4414">UserCanSpeak: bool = True</text><rect fill="none" height="6" style="stroke:#C82930;stroke-width:1;" width="6" x="338.86" y="253.1387"/><text fill="#000000" font-family="sans-serif" font-size="14" lengthAdjust="spacing" textLength="147.1572" x="350.86" y="259.9297">last_active_time: float</text><rect fill="none" height="6" style="stroke:#C82930;stroke-width:1;" width="6" x="338.86" y="269.627"/><text fill="#000000" font-family="sans-serif" font-size="14" lengthAdjust="spacing" textLength="95.8672" x="350.86" y="276.418">messages: list</text><rect fill="none" height="6" style="stroke:#C82930;stroke-width:1;" width="6" x="338.86" y="286.1152"/><text fill="#000000" font-family="sans-serif" font-size="14" lengthAdjust="spacing" textLength="205.748" x="350.86" y="292.9063">_last_messages_count: int = 0</text><text fill="#000000" font-family="sans-serif" font-size="14" lengthAdjust="spacing" textLength="4.4297" x="350.86" y="309.3945">&#160;</text><rect fill="none" height="6" style="stroke:#C82930;stroke-width:1;" width="6" x="338.86" y="319.0918"/><text fill="#000000" font-family="sans-serif" font-size="14" lengthAdjust="spacing" textLength="39.6963" x="350.86" y="325.8828">sr: int</text><rect fill="none" height="6" style="stroke:#C82930;stroke-width:1;" width="6" x="338.86" y="335.5801"/><text fill="#000000" font-family="sans-serif" font-size="14" lengthAdjust="spacing" textLength="112.0342" x="350.86" y="342.3711">data: np.ndarray</text><text fill="#000000" font-family="sans-serif" font-size="14" lengthAdjust="spacing" textLength="4.4297" x="350.86" y="358.8594">&#160;</text><rect fill="none" height="6" style="stroke:#C82930;stroke-width:1;" width="6" x="338.86" y="368.5566"/><text fill="#000000" font-family="sans-serif" font-size="14" lengthAdjust="spacing" textLength="137.9424" x="350.86" y="375.3477">imageQueue: Queue</text><rect fill="none" height="6" style="stroke:#C82930;stroke-width:1;" width="6" x="338.86" y="385.0449"/><text fill="#000000" font-family="sans-serif" font-size="14" lengthAdjust="spacing" textLength="227.9033" x="350.86" y="391.8359">processdImageJsonQueue: Queue</text><text fill="#000000" font-family="sans-serif" font-size="14" lengthAdjust="spacing" textLength="4.4297" x="350.86" y="408.3242">&#160;</text><rect fill="none" height="6" style="stroke:#C82930;stroke-width:1;" width="6" x="338.86" y="418.0215"/><text fill="#000000" font-family="sans-serif" font-size="14" lengthAdjust="spacing" textLength="170.96" x="350.86" y="424.8125">textOutputQueue: Queue</text><rect fill="none" height="6" style="stroke:#C82930;stroke-width:1;" width="6" x="338.86" y="434.5098"/><text fill="#000000" font-family="sans-serif" font-size="14" lengthAdjust="spacing" textLength="138.2705" x="350.86" y="441.3008">event_queue: Queue</text><text fill="#000000" font-family="sans-serif" font-size="14" lengthAdjust="spacing" textLength="4.4297" x="350.86" y="457.7891">&#160;</text><rect fill="none" height="6" style="stroke:#C82930;stroke-width:1;" width="6" x="338.86" y="467.4863"/><text fill="#000000" font-family="sans-serif" font-size="14" lengthAdjust="spacing" textLength="125.6855" x="350.86" y="474.2773">Dataqueue: Queue</text><rect fill="none" height="6" style="stroke:#C82930;stroke-width:1;" width="6" x="338.86" y="483.9746"/><text fill="#000000" font-family="sans-serif" font-size="14" lengthAdjust="spacing" textLength="181.5762" x="350.86" y="490.7656">piper_audio_queue: Queue</text><rect fill="none" height="6" style="stroke:#C82930;stroke-width:1;" width="6" x="338.86" y="500.4629"/><text fill="#000000" font-family="sans-serif" font-size="14" lengthAdjust="spacing" textLength="193.9082" x="350.86" y="507.2539">toolResponseCacheq: Queue</text><text fill="#000000" font-family="sans-serif" font-size="14" lengthAdjust="spacing" textLength="4.4297" x="350.86" y="523.7422">&#160;</text><rect fill="none" height="6" style="stroke:#C82930;stroke-width:1;" width="6" x="338.86" y="533.4395"/><text fill="#000000" font-family="sans-serif" font-size="14" lengthAdjust="spacing" textLength="193.7783" x="350.86" y="540.2305">audio_player_thread: Thread</text><text fill="#000000" font-family="sans-serif" font-size="14" lengthAdjust="spacing" textLength="4.4297" x="350.86" y="556.7188">&#160;</text><text fill="#000000" font-family="sans-serif" font-size="14" lengthAdjust="spacing" textLength="16.2012" x="350.86" y="573.207">--</text><line style="stroke:#181818;stroke-width:0.5;" x1="331.86" x2="592.1373" y1="580.1602" y2="580.1602"/><ellipse cx="341.86" cy="593.9043" fill="#84BE84" rx="3" ry="3" style="stroke:#038048;stroke-width:1;"/><text fill="#000000" font-family="sans-serif" font-size="14" lengthAdjust="spacing" textLength="101.1172" x="350.86" y="597.6953">__init__() : void</text><ellipse cx="341.86" cy="610.3926" fill="#84BE84" rx="3" ry="3" style="stroke:#038048;stroke-width:1;"/><text fill="#000000" font-family="sans-serif" font-size="14" lengthAdjust="spacing" textLength="147.7861" x="350.86" y="614.1836">display_queue() : void</text><ellipse cx="341.86" cy="626.8809" fill="#84BE84" rx="3" ry="3" style="stroke:#038048;stroke-width:1;"/><text fill="#000000" font-family="sans-serif" font-size="14" lengthAdjust="spacing" textLength="209.3096" x="350.86" y="630.6719">enable_session_nd_mic() : void</text><ellipse cx="341.86" cy="643.3691" fill="#84BE84" rx="3" ry="3" style="stroke:#038048;stroke-width:1;"/><text fill="#000000" font-family="sans-serif" font-size="14" lengthAdjust="spacing" textLength="171.418" x="350.86" y="647.1602">_main_play_audio() : void</text><ellipse cx="341.86" cy="659.8574" fill="#84BE84" rx="3" ry="3" style="stroke:#038048;stroke-width:1;"/><text fill="#000000" font-family="sans-serif" font-size="14" lengthAdjust="spacing" textLength="236.2773" x="350.86" y="663.6484">clearCacheOnEndOfSession() : void</text></g><!--class SessionMonitor--><g class="entity" data-entity="SessionMonitor" data-source-line="50" data-uid="ent0005" id="entity_SessionMonitor"><rect fill="#F1F1F1" height="146.9297" rx="2.5" ry="2.5" style="stroke:#181818;stroke-width:0.5;" width="239.7256" x="28.14" y="747.0883"/><ellipse cx="91.7997" cy="763.0883" fill="#ADD1B2" rx="11" ry="11" style="stroke:#181818;stroke-width:1;"/><path d="M94.2728,769.2313 Q93.6918,769.5302 93.0526,769.6796 Q92.4134,769.829 91.7079,769.829 Q89.201,769.829 87.8812,768.1771 Q86.5614,766.5253 86.5614,763.4042 Q86.5614,760.2748 87.8812,758.6229 Q89.201,756.9711 91.7079,756.9711 Q92.4134,756.9711 93.0609,757.1205 Q93.7084,757.2699 94.2728,757.5688 L94.2728,760.2914 Q93.642,759.7104 93.0484,759.4406 Q92.4549,759.1708 91.8241,759.1708 Q90.4794,759.1708 89.7945,760.2375 Q89.1097,761.3041 89.1097,763.4042 Q89.1097,765.496 89.7945,766.5626 Q90.4794,767.6293 91.8241,767.6293 Q92.4549,767.6293 93.0484,767.3595 Q93.642,767.0897 94.2728,766.5087 Z " fill="#000000"/><text fill="#000000" font-family="sans-serif" font-size="14" lengthAdjust="spacing" textLength="103.9063" x="112.2997" y="768.3793">SessionMonitor</text><line style="stroke:#181818;stroke-width:0.5;" x1="29.14" x2="266.8656" y1="779.0883" y2="779.0883"/><rect fill="none" height="6" style="stroke:#C82930;stroke-width:1;" width="6" x="36.14" y="789.8324"/><text fill="#000000" font-family="sans-serif" font-size="14" lengthAdjust="spacing" textLength="137.457" x="48.14" y="796.6234">timeout_sec: int = 7</text><rect fill="none" height="6" style="stroke:#C82930;stroke-width:1;" width="6" x="36.14" y="806.3207"/><text fill="#000000" font-family="sans-serif" font-size="14" lengthAdjust="spacing" textLength="135.6934" x="48.14" y="813.1117">session_active: bool</text><rect fill="none" height="6" style="stroke:#C82930;stroke-width:1;" width="6" x="36.14" y="822.809"/><text fill="#000000" font-family="sans-serif" font-size="14" lengthAdjust="spacing" textLength="155.9551" x="48.14" y="829.6">last_activity_time: float</text><line style="stroke:#181818;stroke-width:1;" x1="29.14" x2="266.8656" y1="836.5531" y2="836.5531"/><rect fill="#F24D5C" height="6" style="stroke:#C82930;stroke-width:1;" width="6" x="36.14" y="847.2973"/><text fill="#000000" font-family="sans-serif" font-size="14" lengthAdjust="spacing" textLength="208.6875" x="48.14" y="854.0883">check_session_timeout() : bool</text><rect fill="#F24D5C" height="6" style="stroke:#C82930;stroke-width:1;" width="6" x="36.14" y="863.7855"/><text fill="#000000" font-family="sans-serif" font-size="14" lengthAdjust="spacing" textLength="133.9434" x="48.14" y="870.5766">end_session() : void</text><rect fill="#F24D5C" height="6" style="stroke:#C82930;stroke-width:1;" width="6" x="36.14" y="880.2738"/><text fill="#000000" font-family="sans-serif" font-size="14" lengthAdjust="spacing" textLength="213.7256" x="48.14" y="887.0648">play_end_session_audio() : void</text></g><!--class AudioPlaybackEngine--><g class="entity" data-entity="AudioPlaybackEngine" data-source-line="60" data-uid="ent0006" id="entity_AudioPlaybackEngine"><rect fill="#F1F1F1" height="179.9063" rx="2.5" ry="2.5" style="stroke:#181818;stroke-width:0.5;" width="290.4688" x="302.77" y="730.5983"/><ellipse cx="371.7173" cy="746.5983" fill="#ADD1B2" rx="11" ry="11" style="stroke:#181818;stroke-width:1;"/><path d="M374.1904,752.7413 Q373.6094,753.0402 372.9702,753.1896 Q372.331,753.339 371.6255,753.339 Q369.1186,753.339 367.7988,751.6871 Q366.479,750.0353 366.479,746.9142 Q366.479,743.7848 367.7988,742.1329 Q369.1186,740.4811 371.6255,740.4811 Q372.331,740.4811 372.9785,740.6305 Q373.626,740.7799 374.1904,741.0788 L374.1904,743.8014 Q373.5596,743.2204 372.966,742.9506 Q372.3725,742.6808 371.7417,742.6808 Q370.397,742.6808 369.7121,743.7475 Q369.0273,744.8141 369.0273,746.9142 Q369.0273,749.006 369.7121,750.0726 Q370.397,751.1393 371.7417,751.1393 Q372.3725,751.1393 372.966,750.8695 Q373.5596,750.5997 374.1904,750.0187 Z " fill="#000000"/><text fill="#000000" font-family="sans-serif" font-size="14" lengthAdjust="spacing" textLength="144.0742" x="392.2173" y="751.8893">AudioPlaybackEngine</text><line style="stroke:#181818;stroke-width:0.5;" x1="303.77" x2="592.2388" y1="762.5983" y2="762.5983"/><rect fill="none" height="6" style="stroke:#C82930;stroke-width:1;" width="6" x="310.77" y="773.3424"/><text fill="#000000" font-family="sans-serif" font-size="14" lengthAdjust="spacing" textLength="173.1748" x="322.77" y="780.1334">sample_rate: int = 22050</text><rect fill="none" height="6" style="stroke:#C82930;stroke-width:1;" width="6" x="310.77" y="789.8307"/><text fill="#000000" font-family="sans-serif" font-size="14" lengthAdjust="spacing" textLength="115.623" x="322.77" y="796.6217">channels: int = 1</text><rect fill="none" height="6" style="stroke:#C82930;stroke-width:1;" width="6" x="310.77" y="806.319"/><text fill="#000000" font-family="sans-serif" font-size="14" lengthAdjust="spacing" textLength="131.0586" x="322.77" y="813.11">dtype: str = "int16"</text><rect fill="none" height="6" style="stroke:#C82930;stroke-width:1;" width="6" x="310.77" y="822.8073"/><text fill="#000000" font-family="sans-serif" font-size="14" lengthAdjust="spacing" textLength="154.2529" x="322.77" y="829.5983">speaking: bool = False</text><line style="stroke:#181818;stroke-width:1;" x1="303.77" x2="592.2388" y1="836.5514" y2="836.5514"/><rect fill="#F24D5C" height="6" style="stroke:#C82930;stroke-width:1;" width="6" x="310.77" y="847.2955"/><text fill="#000000" font-family="sans-serif" font-size="14" lengthAdjust="spacing" textLength="264.4688" x="322.77" y="854.0866">create_output_stream() : OutputStream</text><rect fill="#F24D5C" height="6" style="stroke:#C82930;stroke-width:1;" width="6" x="310.77" y="863.7838"/><text fill="#000000" font-family="sans-serif" font-size="14" lengthAdjust="spacing" textLength="191.6592" x="322.77" y="870.5748">process_audio_bytes() : void</text><rect fill="#F24D5C" height="6" style="stroke:#C82930;stroke-width:1;" width="6" x="310.77" y="880.2721"/><text fill="#000000" font-family="sans-serif" font-size="14" lengthAdjust="spacing" textLength="201.1543" x="322.77" y="887.0631">handle_tts_end_signal() : void</text><rect fill="#F24D5C" height="6" style="stroke:#C82930;stroke-width:1;" width="6" x="310.77" y="896.7604"/><text fill="#000000" font-family="sans-serif" font-size="14" lengthAdjust="spacing" textLength="190.3604" x="322.77" y="903.5514">update_activity_time() : void</text></g><!--class SYSTEMPROMPT--><g class="entity" data-entity="SYSTEMPROMPT" data-source-line="74" data-uid="ent0008" id="entity_SYSTEMPROMPT"><rect fill="#F1F1F1" height="64.4883" rx="2.5" ry="2.5" style="stroke:#181818;stroke-width:0.5;" width="281.9033" x="781.05" y="788.3083"/><ellipse cx="863.5427" cy="804.3083" fill="#ADD1B2" rx="11" ry="11" style="stroke:#181818;stroke-width:1;"/><path d="M866.0158,810.4513 Q865.4348,810.7502 864.7956,810.8996 Q864.1564,811.049 863.4509,811.049 Q860.944,811.049 859.6242,809.3971 Q858.3044,807.7453 858.3044,804.6242 Q858.3044,801.4948 859.6242,799.8429 Q860.944,798.1911 863.4509,798.1911 Q864.1564,798.1911 864.8039,798.3405 Q865.4514,798.4899 866.0158,798.7887 L866.0158,801.5114 Q865.385,800.9304 864.7915,800.6606 Q864.1979,800.3908 863.5671,800.3908 Q862.2224,800.3908 861.5375,801.4575 Q860.8527,802.5241 860.8527,804.6242 Q860.8527,806.716 861.5375,807.7826 Q862.2224,808.8493 863.5671,808.8493 Q864.1979,808.8493 864.7915,808.5795 Q865.385,808.3097 866.0158,807.7287 Z " fill="#000000"/><text fill="#000000" font-family="sans-serif" font-size="14" lengthAdjust="spacing" textLength="108.418" x="884.0427" y="809.5993">SYSTEMPROMPT</text><line style="stroke:#181818;stroke-width:0.5;" x1="782.05" x2="1061.9533" y1="820.3083" y2="820.3083"/><rect fill="none" height="6" style="stroke:#C82930;stroke-width:1;" width="6" x="789.05" y="831.0524"/><text fill="#000000" font-family="sans-serif" font-size="14" lengthAdjust="spacing" textLength="255.9033" x="801.05" y="837.8434">System message for LLM initialization</text><line style="stroke:#181818;stroke-width:0.5;" x1="782.05" x2="1061.9533" y1="844.7966" y2="844.7966"/></g><!--class LLMCacheAPI--><g class="entity" data-entity="LLMCacheAPI" data-source-line="80" data-uid="ent0010" id="entity_LLMCacheAPI"><rect fill="#F1F1F1" height="64.4883" rx="2.5" ry="2.5" style="stroke:#181818;stroke-width:0.5;" width="160.1074" x="1118.95" y="788.3083"/><ellipse cx="1151.3251" cy="804.3083" fill="#B4A7E5" rx="11" ry="11" style="stroke:#181818;stroke-width:1;"/><path d="M1147.7528,800.5734 L1147.7528,798.4152 L1155.1322,798.4152 L1155.1322,800.5734 L1152.6669,800.5734 L1152.6669,808.6501 L1155.1322,808.6501 L1155.1322,810.8083 L1147.7528,810.8083 L1147.7528,808.6501 L1150.2182,808.6501 L1150.2182,800.5734 Z " fill="#000000"/><text fill="#000000" font-family="sans-serif" font-size="14" font-style="italic" lengthAdjust="spacing" textLength="89.4961" x="1169.1862" y="809.5993">LLMCacheAPI</text><line style="stroke:#181818;stroke-width:0.5;" x1="1119.95" x2="1278.0574" y1="820.3083" y2="820.3083"/><ellipse cx="1129.95" cy="834.0524" fill="none" rx="3" ry="3" style="stroke:#038048;stroke-width:1;"/><text fill="#000000" font-family="sans-serif" font-size="14" lengthAdjust="spacing" textLength="134.1074" x="1138.95" y="837.8434">POST /clear-history</text><line style="stroke:#181818;stroke-width:0.5;" x1="1119.95" x2="1278.0574" y1="844.7966" y2="844.7966"/></g><!--class Queue--><g class="entity" data-entity="Queue" data-source-line="89" data-uid="ent0015" id="entity_Queue"><rect fill="#F1F1F1" height="48" rx="2.5" ry="2.5" style="stroke:#181818;stroke-width:0.5;" width="75.8525" x="649.07" y="796.5583"/><ellipse cx="664.07" cy="812.5583" fill="#ADD1B2" rx="11" ry="11" style="stroke:#181818;stroke-width:1;"/><path d="M666.5431,818.7013 Q665.9621,819.0002 665.3229,819.1496 Q664.6838,819.299 663.9782,819.299 Q661.4714,819.299 660.1515,817.6471 Q658.8317,815.9953 658.8317,812.8742 Q658.8317,809.7448 660.1515,808.0929 Q661.4714,806.4411 663.9782,806.4411 Q664.6838,806.4411 665.3312,806.5905 Q665.9787,806.7399 666.5431,807.0387 L666.5431,809.7614 Q665.9123,809.1804 665.3188,808.9106 Q664.7253,808.6408 664.0944,808.6408 Q662.7497,808.6408 662.0649,809.7075 Q661.3801,810.7741 661.3801,812.8742 Q661.3801,814.966 662.0649,816.0326 Q662.7497,817.0993 664.0944,817.0993 Q664.7253,817.0993 665.3188,816.8295 Q665.9123,816.5597 666.5431,815.9787 Z " fill="#000000"/><text fill="#000000" font-family="sans-serif" font-size="14" lengthAdjust="spacing" textLength="43.8525" x="678.07" y="817.8493">Queue</text><line style="stroke:#181818;stroke-width:0.5;" x1="650.07" x2="723.9225" y1="828.5583" y2="828.5583"/><line style="stroke:#181818;stroke-width:0.5;" x1="650.07" x2="723.9225" y1="836.5583" y2="836.5583"/></g><!--reverse link DMSLMMain to SessionMonitor--><g class="link" data-entity-1="DMSLMMain" data-entity-2="SessionMonitor" data-source-line="85" data-uid="lnk11" id="link_DMSLMMain_SessionMonitor"><path codeLine="85" d="M323.5627,656.4875 C317.9127,664.7075 318.92,662.8483 313,670.5983 C292.16,697.8983 265.86,724.2283 240.43,746.9483" fill="none" id="DMSLMMain-backto-SessionMonitor" style="stroke:#181818;stroke-width:1;"/><polygon fill="#181818" points="330.36,646.5983,323.6649,649.2771,323.5627,656.4875,330.2577,653.8087,330.36,646.5983" style="stroke:#181818;stroke-width:1;"/></g><!--reverse link DMSLMMain to AudioPlaybackEngine--><g class="link" data-entity-1="DMSLMMain" data-entity-2="AudioPlaybackEngine" data-source-line="86" data-uid="lnk12" id="link_DMSLMMain_AudioPlaybackEngine"><path codeLine="86" d="M452.3043,683.0824 C451.6443,704.1524 451.38,712.2383 450.81,730.4283" fill="none" id="DMSLMMain-backto-AudioPlaybackEngine" style="stroke:#181818;stroke-width:1;"/><polygon fill="#181818" points="452.68,671.0883,448.4941,676.9601,452.3043,683.0824,456.4902,677.2106,452.68,671.0883" style="stroke:#181818;stroke-width:1;"/></g><!--link DMSLMMain to SYSTEMPROMPT--><g class="link" data-entity-1="DMSLMMain" data-entity-2="SYSTEMPROMPT" data-source-line="87" data-uid="lnk13" id="link_DMSLMMain_SYSTEMPROMPT"><path codeLine="87" d="M593.51,502.4883 C695.2,600.6383 824.2531,725.2013 885.0031,783.8413" fill="none" id="DMSLMMain-to-SYSTEMPROMPT" style="stroke:#181818;stroke-width:1;"/><polygon fill="#181818" points="889.32,788.0083,885.6226,778.8798,885.7225,784.5358,880.0666,784.6357,889.32,788.0083" style="stroke:#181818;stroke-width:1;"/></g><!--link DMSLMMain to LLMCacheAPI--><g class="link" data-entity-1="DMSLMMain" data-entity-2="LLMCacheAPI" data-source-line="88" data-uid="lnk14" id="link_DMSLMMain_LLMCacheAPI"><path codeLine="88" d="M593.43,445.4083 C720.17,514.1183 916.19,623.9183 1079,730.5983 C1106.33,748.5083 1131.0669,766.6896 1153.9769,784.2396" fill="none" id="DMSLMMain-to-LLMCacheAPI" style="stroke:#181818;stroke-width:1;"/><polygon fill="#181818" points="1158.74,787.8883,1154.0279,779.2398,1154.7708,784.8477,1149.1629,785.5906,1158.74,787.8883" style="stroke:#181818;stroke-width:1;"/></g><!--link DebugQueue to Queue--><g class="link" data-entity-1="DebugQueue" data-entity-2="Queue" data-source-line="89" data-uid="lnk17" id="link_DebugQueue_Queue"><path codeLine="89" d="M172.54,431.8883 C191.85,499.5083 234.03,611.2083 313,670.5983 C420.27,751.2883 492.88,663.2683 609,730.5983 C636.54,746.5683 649.3639,760.8191 663.0539,781.4091" fill="none" id="DebugQueue-to-Queue" style="stroke:#181818;stroke-width:1;"/><polygon fill="none" points="673.02,796.3983,668.0503,778.087,658.0575,784.7311,673.02,796.3983" style="stroke:#181818;stroke-width:1;"/></g><!--SRC=[TLLXJzim4FtUNs7r4sCB0yROL6b87GJerDBIf9gs2LbkSaqjKZkr7KQtyTztSH9mIfelQNtFvtSlxyw6cnJ8nIWOZaQC2-AH2LCW33bFcTQahw8bDn2PN46dax7edYL0kfd5M4YN_Erq23wHtN01ypovpI47N2VLyvPakTd3FAjtP9-fHEDh__vtyUiDwP47oMC7cu3PQq4LsvzHdlVoamnbeWbBKxAsvyeC53DS2krW9eeBeyclsva_yyba5juH9kBw_vKVtbdmKwEMPrMg4ijKbzF-oAVN_k3gEaHQgDKNSlBvy1NY- -0YlAu1foUl0UVN_PiRVnZKc0yEOZgukQ9VPvUN_fG6Wvz-6qOlyJF4TA7O2dIFYEn0n4mfjd7PQj0QjUYHkPGf9hXagGOdFjEWpfa8Cc3tpw1GvIu6rJ2KHOO_03Ly1JsoI2Kp3W89Q7G6iaYvTWFKxgt3D9AvC7KjXmsUoYuxAp4pR5TLV8NfhCrwnBwSMAPaXEV5WmBpJKlHm3b00uzcd1lqvevCy80kf-iTso-Gtte71OuUf2oFkQGx80QLdeBEqAPmpg8bh5kEA3DaATjWEhDKmE8U2UsxqzOBRmcbN713wLvBOyLS5wbAHcq046oU0gqiGqLCLpng0z8LTeNbLHRPXebIOCfMDXQ-YCUBe4pRn3OQhaAC99OWbJD0K2wqdSmDSejg-tnwxVBAfAMFMmtCpQRTmkv0GSxH_RCCrT6MzrPUG8bqMrcL3Gg174oRM0q1-aLyWhlcE6bzaN013HKqMsNuWN2yGQt2yV7XnyC6ToO4fBgE7xaTPJOPRjH6OQ2ByQFJhfkzc05S9BjcHKCYzA01ActxKCm8R6KBAnigi0klcxBgYVd6W6vJ3Cd7MA0nkjID9uAbRS0yYulp6zzqMzWdvyQAf5Zmf5kfMTdjHn3weybqF9g43Pc3ZSRBfXvgP85U70v7fEWipbB-nzukBOVuZmOK4YRzoQ0-2bK6jM0H52biEs2mSJTEna58tjjsyPOuFQNQlEH-kOFsFM-hGRQ2BUPn49vtrYXuA-IGwpXtkEVzEoklrODoEFq7]--></g></svg>